<svg xmlns="http://www.w3.org/2000/svg" viewBox="0 0 904.9 500.2"><path d="M427.7 67c.2 3.5 3.1 6.2 6.5 6.2s6.3-2.7 6.5-6.2l3.2-56.6c.2-2.7-.8-5.5-2.8-7.6-1.9-1.8-4.4-2.8-6.9-2.8s-5 1-6.9 2.9c-2.1 2.1-3 4.9-2.8 7.6l3.2 56.5zM463.1 97.3c-3.1-1.8-7.1-.7-8.9 2.4-4 6.9-11.5 11.6-20.1 11.6-8.6 0-16.1-4.7-20-11.6-1.8-3.1-5.8-4.2-8.9-2.4-3.1 1.8-4.2 5.8-2.4 8.9 6.2 10.8 17.9 18.1 31.3 18.1s25.1-7.3 31.3-18.1c1.9-3.2.8-7.1-2.3-8.9M407.4 72.6c1.1 3.3 4.6 5.2 7.9 4.3 3.3-.9 5.4-4.2 4.7-7.6l-10.3-49.6c-.5-2.5-2.1-4.9-4.5-6.3-2.3-1.3-4.8-1.6-7.1-.9-2.3.6-4.4 2.1-5.7 4.4-1.4 2.4-1.6 5.2-.8 7.7l15.8 48zM390.3 83.9c1.9 2.9 5.7 3.8 8.7 2.1 3-1.7 4.1-5.5 2.5-8.6l-20-39.7c-1.1-2.2-3.2-4-5.8-4.7-2.4-.6-4.9-.3-6.9.9s-3.6 3.1-4.2 5.5c-.7 2.6-.2 5.3 1.2 7.3l24.5 37.2zM453.1 76.8c3.3.9 6.8-1 7.9-4.3l15.9-48.1c.8-2.5.6-5.3-.8-7.7-1.3-2.2-3.4-3.8-5.7-4.4-2.3-.6-4.9-.4-7.1.9-2.4 1.4-4 3.7-4.5 6.3l-10.3 49.6c-.8 3.5 1.2 6.8 4.6 7.7M469.4 86c3 1.7 6.8.8 8.7-2.1l24.4-37.2c1.4-2.1 1.9-4.7 1.2-7.3-.6-2.4-2.2-4.3-4.2-5.5-2-1.2-4.5-1.6-6.9-.9-2.6.7-4.6 2.5-5.8 4.7l-20 39.7c-1.6 3.1-.4 6.9 2.6 8.6"/><path d="M521.3 239.5l-34.8-46.2c-6.3-8.3-9.9-18.6-9.9-29.6 0-10.9 3.6-21.3 9.9-29.6L521.3 88c3.6-6.2 1.5-14.2-4.8-17.8-6.2-3.6-14.2-1.5-17.8 4.8L477 112.7c-9.1 15.8-25.7 24.7-42.8 24.6-17 .1-33.7-8.8-42.8-24.6L369.7 75c-3.6-6.2-11.6-8.4-17.8-4.8-6.2 3.6-8.4 11.6-4.8 17.8l34.8 46.2c6.3 8.3 9.9 18.6 9.9 29.6 0 10.9-3.6 21.3-9.9 29.6l-34.8 46.2c-3.6 6.2-1.5 14.2 4.8 17.8 6.2 3.6 14.2 1.5 17.8-4.8l21.7-37.7c9.1-15.8 25.7-24.6 42.8-24.6 17.1-.1 33.7 8.8 42.8 24.6l21.7 37.7c3.6 6.2 11.6 8.4 17.8 4.8 6.2-3.7 8.4-11.6 4.8-17.9"/><g><path d="M741.3 406.5c-10.6-1.7-17-3.2-17-7.7 0-3.2 4.2-6.8 14.3-6.8 6 0 10.2 1.7 12.5 4.2 1.6 1.7 4.2 2.3 6.5 1.7l12.8-3.5c2-.5 3-2.8 2-4.6-5.9-10.8-18.3-17.4-33.8-17.4-24.8 0-36.6 14-36.6 27.5 0 19.1 20.5 23.3 35.8 25.6 15 2.3 18 4.3 18 9.1 0 5-6.7 7.7-15.5 7.7-5.3 0-12.1-1.8-16.1-6.4-1.7-2-4.4-3-7-2.3l-12.7 3.4c-1.9.5-3 2.6-2.1 4.5 5.9 13 20 20.8 37.9 20.8 22 0 37.6-12 37.6-28.9 0-18.7-15.3-23.4-36.6-26.9M542.9 392.6H497v-27.5h56.9c2 0 3.7-1.6 3.7-3.7v-13.1c0-2-1.7-3.7-3.7-3.7h-75.2c-2 0-3.7 1.7-3.7 3.7v108.1c0 2 1.7 3.7 3.7 3.7h14.6c2 0 3.7-1.7 3.7-3.7V413h45.9c2 0 3.7-1.6 3.7-3.7v-13.1c-.1-1.9-1.7-3.6-3.7-3.6M590.5 348.4c0-2-1.7-3.7-3.7-3.7h-14.6c-2 0-3.7 1.6-3.7 3.7v108.1c0 2 1.6 3.7 3.7 3.7h14.6c2 0 3.7-1.6 3.7-3.7V348.4zM645.5 441.7c-12.1 0-22-10.5-22-24.1 0-14 9.8-24.6 22-24.6 12.1 0 22 11 22 24.6 0 13.3-9.8 24.1-22 24.1m40.3-67.2h-13.6c-2 0-3.7 1.6-3.7 3.7v5.5c-6.7-7-15.8-11-26.3-11-22.3 0-40.8 19.3-40.8 44.8 0 25.3 18.5 44.6 40.8 44.6 10.5 0 19.6-4 26.3-11v5.5c0 2 1.6 3.7 3.7 3.7h13.6c2 0 3.7-1.6 3.7-3.7v-78.3c-.1-2.1-1.7-3.8-3.7-3.8M837.4 407.9l26.8-28c1.9-2 .5-5.4-2.3-5.4h-19.8c-1.9 0-3.8.8-5 2.2L811 405.6v-57.2c0-2.1-1.7-3.7-3.7-3.7h-14.5c-2.1 0-3.7 1.7-3.7 3.7v108c0 2 1.6 3.7 3.7 3.7h14.6c2 0 3.7-1.6 3.7-3.7v-20.9l11-11.5 19.3 32.8c1.2 2.1 3.4 3.3 5.8 3.3H865c2.7 0 4.3-3 2.8-5.2l-30.4-47z"/><g><path d="M93.3 348.4c0-2-1.7-3.7-3.7-3.7H75c-2 0-3.7 1.6-3.7 3.7l-.1 43.8H22l.1-43.8c0-2-1.6-3.7-3.7-3.7H3.7c-2 0-3.7 1.6-3.7 3.7v108.1c0 2 1.7 3.7 3.7 3.7h14.8c2 0 3.7-1.7 3.7-3.7l-.2-43.8h49.2l.1 43.8c0 2 1.7 3.7 3.7 3.7h14.6c2 0 3.7-1.6 3.7-3.7V348.4zM236.6 441.7c-12.1 0-22-10.5-22-24.1 0-14 9.8-24.6 22-24.6 12.1 0 22 11 22 24.6-.1 13.3-9.9 24.1-22 24.1m43.9-93.3c0-2-1.7-3.7-3.7-3.7h-14.6c-2 0-3.7 1.6-3.7 3.7v34.2c-6.7-6.3-15.3-10-25.3-10-22.3 0-40.8 19.3-40.8 44.7 0 25.3 18.5 44.6 40.8 44.6 10.5 0 19.5-4 26.3-11v5.5c0 2 1.6 3.7 3.7 3.7h13.6c2 0 3.7-1.6 3.7-3.7v-108zM339.3 372.5c-9.1-.5-18 2.8-24.2 10.5v-4.8c0-2-1.6-3.7-3.7-3.7h-13.6c-2 0-3.7 1.7-3.7 3.7v78.3c0 2 1.6 3.7 3.7 3.7h14.6c2 0 3.7-1.7 3.7-3.7v-38.4c0-6.8.8-13.8 5.5-18.6 4.2-4.5 10.2-5.9 17.2-5.6 2.1.1 3.9-1.6 3.9-3.7v-14c.1-2-1.4-3.6-3.4-3.7M388 442c-11.6 0-21.1-10-21.1-24.5 0-14.8 9.5-25.1 21.1-25.1 11.6 0 21.1 10.3 21.1 25.1 0 14.6-9.4 24.5-21.1 24.5m0-69.7c-23.8 0-43.1 19.5-43.1 45.1s19.3 44.7 43.1 44.7 43.3-19.1 43.3-44.7-19.5-45.1-43.3-45.1M187.8 374.5h-13.6c-2 0-3.8 1.2-4.5 3.1l-21 54.6-21-54.6c-.7-1.9-2.5-3.1-4.5-3.1h-13.6c-2.6 0-4.4 2.6-3.4 5l31.4 81.8-2.6 6.9c-3.2 8.4-7.8 11.7-16.4 11.9-2 0-3.7 1.6-3.7 3.7v12.7c0 2 1.6 3.6 3.6 3.7 16.1.5 27.7-3.2 35.8-24.3l36.9-96.3c1-2.5-.8-5.1-3.4-5.1"/></g><path d="M892.1 382.2c1.3 0 2.5-.6 2.5-2.5 0-1.8-1-2.5-2.5-2.5h-4.7v4.9h4.7zm5.6 8.4h-3.5l-2.9-5.6h-3.9v5.6h-3v-16h7.7c3.4 0 5.5 2.1 5.5 5.2 0 2.3-1.3 4.1-3.3 4.9l3.4 5.9zm-7.4-19.5c-6.4 0-11.7 5.3-11.7 11.8 0 6.6 5.2 11.9 11.7 11.9 6.5 0 11.7-5.3 11.7-11.9 0-6.5-5.3-11.8-11.7-11.8m0 26.4c-8.1 0-14.6-6.5-14.6-14.6 0-8 6.5-14.6 14.6-14.6s14.6 6.5 14.6 14.6-6.5 14.6-14.6 14.6"/></g></svg>