<svg xmlns="http://www.w3.org/2000/svg" viewBox="0 0 718.3 234.4"><path d="M32.9 46.6l-.3.1-1.1.4C21 50.4 12.7 58.7 8.5 70.6 2.8 87.3 0 102.9 0 117c0 14.4 2.8 30.1 8.4 46.6 4.2 12 12.5 20.3 23.2 23.7 107.9 29.9 218.2 47 303.1 47l29.7-.2c88.4 0 199.6-16.7 305.1-45.9 11.8-3.7 20-11.9 24.2-23.9 5.3-15.3 7.7-29.6 7.9-46.2v-1.7c-.3-16.8-2.7-31-7.9-46.3-4.2-11.9-12.4-20.3-23.2-23.7C564.3 17 452.8.2 364.4.2L334.9 0C250.1 0 140 17 32.9 46.6z" fill-rule="evenodd" clip-rule="evenodd"/><path d="M194.1 79.4c2.1-1 4-1.9 4.7-2.8.7-.9 1-2.3 1-3.7l.1-5.2c0-6.6-1.6-8.8-7.5-7.7-2 .5-7.2 2.1-13.4 4.6-13.7 5.5-64.2 25.3-92.3 36.2-2.4.8-4.1 1.5-5.4 3.6-2.6 4.1-2.6 11.1-2.6 13 0 2.3.8 10.6 3.2 12.9 1.8 1.5 3.1 1.9 4.9 2.7 28.2 10.9 78.7 30.7 92.3 36.3 6.2 2.5 11.4 4.2 13.4 4.6 5.8 1.2 7.5-1.1 7.5-7.6l-.1-5.2c0-1.4-.3-2.8-1-3.7-.8-.9-2.6-1.9-4.7-2.8-15.7-6.6-79.3-30.8-96-37.3v-.3c16.6-6.6 80.3-31 95.9-37.6zM335.6 57v-5.2c0-5.5-3-8.3-7.8-7.9-12 .5-21.3 1-35.2 2.8-13.7 1.7-21.1 3.4-34.3 5.7-2.5.5-7.7 1.5-10.6 2.5-7.8 2.4-11.8 3.6-16.6 6-4.4 2.2-9.1 4.7-12 8-6.4 7.4-7.6 12-7.6 21.8v52.9c0 9.8 1.1 14.3 7.6 21.8 2.8 3.3 7.5 5.8 12 8 4.8 2.4 8.7 3.6 16.6 6 2.9.9 8.2 2 10.6 2.4 13.3 2.3 20.6 4 34.3 5.7 13.9 1.7 23.2 2.3 35.2 2.7 4.8.4 7.8-2.4 7.8-7.9v-5.2c0-5.3-2.3-7.6-7.1-7.9-12.7-.9-23.2-.9-35.4-2.1-12-1.2-21.3-2.1-35.7-3.9-7.2-.9-13.5-2.9-18.3-5.7-4.9-2.8-7.2-7.5-7.2-11.2V87.9c0-3.8 2.3-8.5 7.2-11.2 4.8-2.8 11.1-4.8 18.3-5.6 14.4-1.8 23.7-2.7 35.7-3.9 12.2-1.2 22.7-1.2 35.4-2.1 4.8-.5 7.1-2.7 7.1-8.1z" fill="#fff"/><path d="M301.8 128.2c4.9 0 6.8-2.8 7.2-8.4v-6.6c-.5-5.6-2.4-8.4-7.2-8.4-8 .4-52.1 1.8-55 2-5.2.3-5.5 1.3-6 2.8-.4 1.2-.5 3.9-.5 7.2 0 3.5.1 6.2.5 7.5.5 1.5 2.1 1.9 6 2.2 3 .1 47.1 1.3 55 1.7zM76.3 88.2c0-.1.1-.1.1-.1 1.6-4.2 0-6.6-5.8-6.6h-6.2c-5.8 0-9.9 1.9-12 6.6-4.2 9.8-5.9 19.6-5.9 28.9 0 9.4 1.7 19.2 5.9 29 2.1 4.7 6.2 6.5 12 6.5h6.2c5.8 0 7.3-2.3 5.8-6.5-9.1-21-7.8-39.7-.1-57.8zM614.7 142.4c1.7 1.2 5.2 3.4 6.4.6 1-2.8 1.3-5 1.8-8.5s1.3-9.2.8-11.1c-.3-1.4-1.9-2.5-3.2-3.1-13.8-7.8-26.8-14.8-41.5-22.5-18.4-9.7-57.5-31.1-58.4-31.5-3.8-1.9-6.8-2.8-9.7-2.8-1 0-1.5 0-2.4.1-.7 0-2.1.2-3.4.9-1.5.9-2.4 1.6-3.1 2.8-.7 1.2-1.2 2.3-1.2 3.7v3.8c0 15 .8 29.9.8 44.9 0 14.5-.8 29.5-.8 44.4 0 4.2 1.9 6.6 6.7 6.5h5.8c4.8 0 7.7-2.4 8.2-6.6 1-12.6 1.4-25.2 1.9-37.4 0-12.6 0-24.7-.5-37.4 17.9 9.7 35.7 19.5 53.6 29.7 11.6 6.4 26.9 16.2 38.2 23.5z" fill="#fff"/><path d="M683.6 73.6c-3-8.5-8.7-14.4-16-16.7-105.2-29.1-215.5-45.7-302.9-45.7l-29.6-.2c-83.7 0-192.7 16.9-298.9 46.2h-.1l-.7.3c-7.4 2.3-13 8.1-16.1 16.7-5.2 15.5-7.9 29.9-7.9 42.8 0 13.1 2.6 27.7 7.9 43.1 3 8.4 8.7 14.3 16 16.6 106.7 29.6 215.9 46.6 299.8 46.6l29.6-.2c87.5 0 197.7-16.6 302.2-45.5 8-2.5 13.7-8.3 16.7-16.9 4.8-14.2 7.1-27.3 7.3-42.7v-1.6c-.2-15.5-2.5-28.6-7.3-42.8zm-9.1 83.4c-3 7.7-5 8.8-14.7 12.1-104.8 29.7-207.3 44.7-295 44.7l-30 .2c-83.9 0-180.8-14.3-287.9-44.1-9.8-2.9-15-4.1-18.6-12.3-4.1-14.7-7.2-28.1-7.2-40.3 0-11.9 1.9-25.5 7.3-39.9 2.7-7.2 7.6-10.2 12-11.3 107.9-29.4 210.6-45 294.4-45l30.1.2c87.6 0 190.8 15 296.1 44.8 7.3 1.6 11.4 4.1 13.6 9.5 5.1 12.9 6.4 25.6 6.6 40v1.4c-.2 14.4-1.5 26.4-6.7 40z" fill="#fff"/><path d="M472.4 61c-12.1-3.8-24.9-6.6-37-8.9-12-2.3-20-3.6-32.1-5.5-2.4-.5-9.4-1.6-12.3-1.6-5.3 0-10.1.5-14.4 1.9-4.3 1.4-8.2 3.8-11.6 6.6-6.7 6.1-10.6 14.5-10.6 25.2v76.8c0 10.8 3.9 19.2 10.6 25.3 3.4 2.8 7.3 5.1 11.6 6.5 4.3 1.4 9.1 1.9 14.4 1.9 2.9 0 9.9-1.1 12.3-1.6 12.1-1.9 20.1-3.1 32.1-5.5 12.1-2.3 24.9-5.2 37-8.9 4.8-1.4 5.5-4.6 5.5-8.8v-2.3c0-4.7-1.9-6.5-6.7-5.6-11.6 2.3-41.9 7.3-70.8 10.5-7.2.8-13.5.4-18.4-1.7-4.9-2.2-7.1-5.2-7.3-10.3-.3-8-.1-68.1.1-76.1.1-5.1 2.4-8.1 7.3-10.2 4.9-2.1 11.2-2.6 18.4-1.8 29 3.2 59.2 8.5 70.8 10.9 4.8 1 6.7-.9 6.7-5.6v-2.3c-.1-4.2-.8-7.5-5.6-8.9zM641.8 81.5h-6.2c-4.8 0-6.8 2.4-5.3 6.6 2.8 7.2 3.9 15.6 4.2 24.2.1 2.5.1 5 0 7.8-.4 10.5-2 20.7-3.7 29-.4 1-.5 2.1 0 3 1.5 1.4 2.5 1.4 4.7 1.5 4.9.1 8.8-.1 11.7-1.6 3.4-1.9 5.4-5.5 6.8-10.1 2.4-8.9 3.8-15 3.8-26.3 0-10.9-2.3-18.5-5.2-27.4-1.7-4.8-5.5-6.7-10.8-6.7z" fill="#fff"/><path d="M445.2 126.8c4.8 0 6.8-2.8 7.3-7.9v-3.5c-.6-5.1-2.5-7.9-7.3-7.9-7.6 0-37-1-55.7-1.7 0 0-3.6-.3-4.4 2.4-.7 2.1-.7 6.6-.7 9.5 0 2.4.1 5.9 1.1 8.7.9 2.3 3.9 2.2 3.9 2.2 18.7-.8 48.2-1.8 55.8-1.8z" fill="#fff"/><path d="M698.8 176c.5-1.2 1.3-2.3 2.2-3.2.9-.9 2-1.6 3.2-2.1 1.2-.5 2.5-.8 3.9-.8s2.7.3 3.9.8c1.2.5 2.3 1.2 3.2 2.1.9.9 1.6 2 2.2 3.2.5 1.2.8 2.5.8 4 0 1.4-.3 2.8-.8 4-.5 1.2-1.3 2.3-2.2 3.2-.9.9-2 1.6-3.2 2.1-1.2.5-2.5.8-3.9.8s-2.7-.2-3.9-.8c-1.2-.5-2.3-1.2-3.2-2.1-.9-.9-1.7-2-2.2-3.2-.5-1.2-.8-2.6-.8-4 0-1.5.3-2.8.8-4zm1.7 7.4c.4 1.1 1 2 1.8 2.7.7.8 1.6 1.4 2.6 1.8 1 .4 2.1.7 3.3.7 1.2 0 2.3-.2 3.3-.7 1-.4 1.9-1 2.6-1.8.7-.8 1.3-1.7 1.7-2.7.4-1.1.6-2.2.6-3.4 0-1.2-.2-2.3-.6-3.4-.4-1-1-1.9-1.7-2.7-.7-.8-1.6-1.4-2.6-1.8-1-.4-2.1-.7-3.3-.7-1.2 0-2.3.2-3.3.7-1 .4-1.9 1-2.6 1.8-.7.8-1.3 1.7-1.8 2.7-.4 1-.6 2.2-.6 3.4-.1 1.2.2 2.3.6 3.4zm8.3-9.3c1.4 0 2.4.3 3.1.8.7.6 1 1.4 1 2.5s-.3 1.8-.9 2.3c-.6.5-1.3.8-2.2.9l3.4 5.2h-2l-3.2-5.1h-1.9v5.1h-1.8V174h4.5zm-.8 5.2h1.2c.4 0 .7-.1 1-.2.3-.1.5-.3.7-.6.2-.3.3-.6.3-1.1 0-.4-.1-.7-.2-.9-.2-.2-.4-.4-.6-.5-.2-.1-.5-.2-.8-.3-.3 0-.6-.1-.9-.1h-2.4v3.8h1.7z"/></svg>