<svg xmlns="http://www.w3.org/2000/svg" viewBox="0 0 224.1 168.5"><g fill="#060d11"><path d="M49.7 98.9c4.8 3.1 10.4 6.1 15.8 8.7 10.9 5.5 20.1 3.2 31-1.3 9.2-3.8 17.6-9.5 25.7-15.2 8.7-6.1 16.8-10.6 27.7-7.6 4.6 1.3 10.2 3.6 14.1 6.5 3.8 2.9 1.4 4.8-2.3 7-3.5 2.1-8.4 4.1-12.5 4.6-5.4.7-10.4-.9-15.7-2.1-2.1-.5-7.9-1.7-9.2.9-1.3 2.6 4.2 5.5 5.8 6.4 6.7 3.8 15.3 5.5 22.8 3.8 11.7-2.7 37.2-15.1 21.1-25.5-9.2-5.1-17.7-10.9-28.2-12.5-10.3-1.6-17.7 1.5-26.2 6.9-8.8 5.6-19.9 13.6-29.5 17.8-4.1 1.8-8.6 4-13.1 3.8-5.4-.3-10.8-2.8-15.5-5.5-2.6-1.5-7.9-4.4-4.2-7.6 3.9-3.4 10.5-6.1 15.4-7.2 11.5-2.7 22.6 2 31.4-.2 7.2-1.8-.6-18.3-2.5-23.3-1.7-4.6-3.1-8.5-2.7-13.5.4-5.2 2-10.7 3.6-15.6 1.3-4.1 3.4-9.2 6.5-12.3 3.6-3.7 6.3 5 7.3 7.5 1.7 4.5 3.2 8.6 3.6 13.4.5 5.7-1.8 10.8-3.9 16-1.1 2.7-3.3 7.2-1.7 10 2.2 4.3 7.5-3.6 8.4-5.1 6.2-10.7 10.8-16.6 7.6-27.1-2.7-9-7.2-19.4-13.8-26.4-2.5-2.7-5.6-5.5-8.9-3.1-3.1 2.3-6 6.1-7.7 9.5-4.6 8.9-8.1 18.5-11.1 28.1-1.8 5.3-2.5 10-1.3 15.1 1.2 5 3.2 9.7 5.1 14.5.2.6.5 1.2.7 1.8 0 0 0 .1-.1.1-9.2-.9-18.4.5-27 3.7-4.8 1.8-10.2 4.7-14.6 7.5-3.3 2-8.7 5-8.7 9.5.3 3.9 3.9 6.1 6.8 8M21.8 128.1c-3.2.8-3.2 1.6-5.1-.9-2-2.5-5.8-1.4-8.6-1.3-2 .1-5.4-1-7.3-.1-2.8 1.4 2 4.1 3 4.6 5.7 2.7 4.1 13 4.1 18.4.1 6.8-.2 13.4-6.2 17.4-1.8 2.4 10.1 2.4 11.1 2.4 1.4 0 11.7-.1 10.8-1.8-1-2-3.4-3.3-4.5-5.3-1-1.8-.4-4.2-.3-6.1 0 0 0-.1.1-.1 5.5 4.2 15.4 2.6 20.8-.6 8.9-5.4 6.7-18.7.1-25.3-4.7-4.7-12.1-2.8-18-1.3m10.9 19c-2.8 2.2-8.2 1.9-11.3.7-3.3-1.3-2.2-6.3-2-9.2.2-2.7 5.1-3.1 8.4-3.2.9 0 2.6.2 3.5.7 3.5 1.8 4.5 8.6 1.4 11M87.3 135.3c.4-2.2-3.9-6.9-5.7-7.9-5.7-3.1-12.6.2-16.3 4.7 0 0-.1.1-.1 0-1.4-1.2-1.5-4.3-3.4-4.6-1.7-.2-3.5 0-5.2-.1-1.9-.1-3.7-.3-5.6-.5-5.3-.7 3.4 5.4 3.8 7.4.9 4.9.1 10 .3 14.9.1 2 .6 5.4-1.1 6.8-.8.7-5.2 3.2-4.2 4.7 1.2 1.9 10.2.8 12.2.8 1.4 0 8.7.4 9.4-.7.6-1-3.5-3.6-3.9-4.4-2.5-3.3-2.3-13.4.5-16.2 1.7-1.7 5.4-4.2 7.8-2.2 1.6 1.4.6 4.6 2.6 5.5h.2c.8-.3 8.5-7.5 8.7-8.2M129.4 158.5c-1.3-2.5-2.6-4.8-3.5-7.6-2.2-6.8-4.4-13.8-6.1-20.8-1.2-4.9-.7-12.8-7.2-10.2-2.6 1-5.3 2.4-7.9 3.1-1.6.4-5.5-.2-6.5 1-.7 2.7 2.6 2.8 1.7 5.6-.7 2.1-2 4-2.9 6-2.1 4.9-4.8 10-7.4 14.6-2.4 4.2-4.4 6.6-7.5 10.3-2 2.5 8.5 1.7 9.5 1.7 2.5.1 3.9.3 5.1-2.4.4-.8 1.1-4.4 2.1-4.9 5-.5 10-.1 15.1-.7 3-.3 6 6.9 9.1 8.8.8.5 11.7 4.7 11.3 2.3-.5-2.2-3.8-4.7-4.9-6.8m-20.2-11.7c-1.4.2-5.7 1.3-6.9.2l-.1-.2c.5-4.2 4-9.8 6-13.5.9-1.7 4 9.9 4.4 10.9.9 2.9-.9 2.2-3.4 2.6M174.2 157s-.1 0 0 0c-1.5-5.6 1-12-.7-17.7-1.8-7.6-6.1-14.2-15.1-12.9-2.6.7-5.4 1.1-7.7 2.7-3.3 2.2-3.3 2.5-5.5-.4-2.1-2.7-2.9-.1-9.4-.7-2.3-.2-4-1.4-4 .4 0 1.8 3 3.6 4.8 5.1.9.7 1.9 2.8 2.1 4.1.2.9.3 1.7.3 2.6.3 3.8.1 7.8.2 11.6.1 1.8.4 4-.5 5.6-.5.8-2.3 2.6-2.1 3.7.8 1.7 16 1.4 17.3.4 2.3-1.6-2.9-4.5-3.7-5.4-1.7-1.8-.4-9-.4-11.5 0-1.9-1-4.8 1.2-5.7 2-.8 5-1.3 7-1 4.5.7 5.7 7.7 5.9 11.3.1 2.1-2.1 10.6-.2 11.7 2.4 1.4 6.6.8 9.2.7 1 0 5.7.3 6.4-.7 1.3-1.8-3.9-3.3-5.1-3.9M213.2 138.3c-1.8-8.2-8.8-14.6-17.7-12.3-1.3.3-3.8.7-7.8 1.3-2.3.3-3.2.3-4.8-.1-1.6-.4-4.6-1.5-4.1.5.4 1.5 3.3 5.4 6.4 6.2 6.9 2.1 16.3-4 17.3 6.1v.1c-9.2-2.3-26 4.7-19 16.6 3.1 5.2 9.8 6.2 15.3 5.5 4.1-.5 6.8-3.5 10.3-.8 1.4.7 8.7 2.7 9.6.5 1-2.2-4.5-5.2-4.7-8.3-.1-5 .3-10.3-.8-15.3M202 153.5c-3.8 1.9-13.9-1.3-8.4-6 2.4-2.1 6.2-1.8 8.4-.8.4.2 1 .7 1.2 1.4.4 1.7 1.1 4.3-1.2 5.4"/><path d="M223.7 151c-.3-.6-.7-1-1.3-1.3-.6-.3-1.2-.5-1.8-.5-.6 0-1.1.1-1.6.4-.6.3-1.1.7-1.4 1.2-.3.5-.5 1.1-.5 1.8 0 .5.1 1.1.4 1.5.3.6.8 1 1.3 1.3.6.3 1.2.5 1.8.5.6 0 1.1-.1 1.6-.4.6-.3 1.1-.7 1.4-1.2.3-.5.5-1.1.5-1.8 0-.5-.1-1-.4-1.5m-1.1 3.5c-.6.5-1.2.8-2 .8-.4 0-.9-.1-1.3-.3-.5-.2-.9-.6-1.1-1-.3-.4-.4-.9-.4-1.4 0-.4.1-.7.2-1 .1-.3.4-.6.6-.9.6-.5 1.2-.8 2-.8.5 0 .9.1 1.2.3.5.2.8.6 1.1 1 .3.4.4.9.4 1.4.1.7-.1 1.4-.7 1.9"/><path d="M222.7 153.7c-.1 0-.2-.1-.2-.1 0-.1-.1-.1-.1-.2 0-.3-.1-.5-.2-.6-.1-.1-.2-.2-.4-.3-.1 0-.1-.1-.2-.1 0-.1.1-.1.1-.1.1-.1.2-.1.3-.3.1-.1.1-.3.1-.4 0-.3-.1-.6-.3-.7-.5-.3-1.2-.3-1.4-.3-.3 0-1.1.1-1.1.1-.4 0-.6.1-.6.3 0 .1 0 .1.2.2.1 0 .1.1.2.2v1.9c0 .2-.1.3-.2.4-.1.1-.2.1-.2.2 0 .2.3.3 1 .3.4 0 .3 0 .5-.1.1 0 .2-.1.2-.2s0-.1-.1-.2c-.1 0-.1-.1-.2-.2v-.5-.3c0-.1.1-.1.2-.1.2 0 .9.1 1 .5.1.4.2.7.4.9.1.1.2.2.5.2s.3 0 .5-.1c.1-.1.2-.1.2-.2-.2-.1-.2-.2-.2-.2m-1.6-1.6c-.1 0-.8.1-1 .1-.1 0-.1 0-.1-.1v-.6c0-.1 0-.2.2-.2s1-.1 1.1.2c.2.2-.1.5-.2.6"/></g></svg>